# xmcd CD database file
#
# Track frame offsets:
#	150
#	13219
#	32035
#	45939
#	59723
#	73337
#	79988
#	91876
#	104802
#	114404
#	122215
#	139236
#	154047
#	165588
#	176827
#	200997
#	213610
#	225811
#	235532
#	250776
#
# Disc length: 3395 seconds
#
# Revision: 0
# Processed by: cddbd v1.5.1PL0 Copyright (c) Steve Scherf et al.
# Submitted via: Feurio! 1.67 - http://www.feurio.com
#
DISCID=1f0d4114
DTITLE=Johnny Cash - Man In Black (The Very Best Of Johnny Cash) [CD 2)
DYEAR=1900
DGENRE=COUNTRY
TTITLE0=Man in black
TTITLE1=Sunday morning coming down
TTITLE2=The girl from North Country
TTITLE3=It ain't me babe
TTITLE4=If i were a carpenter
TTITLE5=Busted (Live)
TTITLE6=Flesh and blood
TTITLE7=Wanted man
TTITLE8=What on earth will you do
TTITLE9=One piece at a time
TTITLE10=(Ghost) Riders in the sky
TTITLE11=There ain't no good chain gang
TTITLE12=A thing called love
TTITLE13=Without love
TTITLE14=Highway Patrolman
TTITLE15=The Beast in me
TTITLE16=Sea of heartbreak
TTITLE17=I won't back down
TTITLE18=Wayfaring stranger
TTITLE19=Me and Bobby McGee
EXTD=
EXTT0=
EXTT1=
EXTT2=
EXTT3=
EXTT4=
EXTT5=
EXTT6=
EXTT7=
EXTT8=
EXTT9=
EXTT10=
EXTT11=
EXTT12=
EXTT13=
EXTT14=
EXTT15=
EXTT16=
EXTT17=
EXTT18=
EXTT19=
PLAYORDER=
